<svg width="17" height="17" viewBox="0 0 17 17" fill="none" xmlns="http://www.w3.org/2000/svg">
<path d="M8.50002 1.41669C7.09907 1.41669 5.72958 1.83212 4.56473 2.61044C3.39989 3.38877 2.492 4.49504 1.95588 5.78935C1.41976 7.08366 1.27948 8.50788 1.55279 9.88191C1.82611 11.2559 2.50073 12.5181 3.49135 13.5087C4.48197 14.4993 5.7441 15.1739 7.11813 15.4472C8.49217 15.7206 9.91639 15.5803 11.2107 15.0442C12.505 14.508 13.6113 13.6002 14.3896 12.4353C15.1679 11.2705 15.5834 9.90097 15.5834 8.50002C15.5834 7.56982 15.4001 6.64874 15.0442 5.78935C14.6882 4.92996 14.1664 4.1491 13.5087 3.49135C12.8509 2.8336 12.0701 2.31184 11.2107 1.95587C10.3513 1.5999 9.43022 1.41669 8.50002 1.41669ZM8.50002 14.1667C7.37926 14.1667 6.28367 13.8343 5.35179 13.2117C4.41991 12.589 3.6936 11.704 3.26471 10.6686C2.83581 9.63311 2.72359 8.49373 2.94224 7.39451C3.16089 6.29528 3.70059 5.28558 4.49308 4.49308C5.28558 3.70058 6.29529 3.16089 7.39451 2.94224C8.49374 2.72359 9.63311 2.83581 10.6686 3.2647C11.704 3.6936 12.589 4.41991 13.2117 5.35179C13.8343 6.28367 14.1667 7.37926 14.1667 8.50002C14.1667 10.0029 13.5697 11.4443 12.507 12.507C11.4443 13.5697 10.0029 14.1667 8.50002 14.1667ZM11.3334 7.79169H9.20836V5.66669C9.20836 5.47883 9.13373 5.29866 9.00089 5.16582C8.86805 5.03298 8.68789 4.95835 8.50002 4.95835C8.31216 4.95835 8.13199 5.03298 7.99916 5.16582C7.86632 5.29866 7.79169 5.47883 7.79169 5.66669V7.79169H5.66669C5.47883 7.79169 5.29866 7.86631 5.16582 7.99915C5.03298 8.13199 4.95836 8.31216 4.95836 8.50002C4.95836 8.68788 5.03298 8.86805 5.16582 9.00089C5.29866 9.13373 5.47883 9.20835 5.66669 9.20835H7.79169V11.3334C7.79169 11.5212 7.86632 11.7014 7.99916 11.8342C8.13199 11.9671 8.31216 12.0417 8.50002 12.0417C8.68789 12.0417 8.86805 11.9671 9.00089 11.8342C9.13373 11.7014 9.20836 11.5212 9.20836 11.3334V9.20835H11.3334C11.5212 9.20835 11.7014 9.13373 11.8342 9.00089C11.9671 8.86805 12.0417 8.68788 12.0417 8.50002C12.0417 8.31216 11.9671 8.13199 11.8342 7.99915C11.7014 7.86631 11.5212 7.79169 11.3334 7.79169Z" fill="black"/>
</svg>
